<svg width="24" height="24" viewBox="0 0 24 24" xmlns="http://www.w3.org/2000/svg">
<g id="remix-icons/line/system/alarm-warning-line">
<g id="Group">
<path id="Vector" d="M4.00001 20V14C4.00001 11.8783 4.84287 9.84344 6.34316 8.34315C7.84345 6.84285 9.87828 6 12 6C14.1217 6 16.1566 6.84285 17.6569 8.34315C19.1572 9.84344 20 11.8783 20 14V20H21V22H3.00001V20H4.00001ZM6.00001 20H18V14C18 12.4087 17.3679 10.8826 16.2427 9.75736C15.1174 8.63214 13.5913 8 12 8C10.4087 8 8.88259 8.63214 7.75737 9.75736C6.63215 10.8826 6.00001 12.4087 6.00001 14V20ZM11 2H13V5H11V2ZM19.778 4.808L21.192 6.222L19.072 8.343L17.657 6.929L19.778 4.808ZM2.80801 6.222L4.22201 4.808L6.34301 6.928L4.93001 8.344L2.80801 6.222ZM7.00001 14C7.00001 12.6739 7.5268 11.4021 8.46448 10.4645C9.40216 9.52678 10.6739 9 12 9V11C11.2044 11 10.4413 11.3161 9.87869 11.8787C9.31608 12.4413 9.00001 13.2044 9.00001 14H7.00001Z"/>
</g>
</g>
</svg>
