<svg width="24" height="24" viewBox="0 0 24 24" xmlns="http://www.w3.org/2000/svg">
<g id="remix-icons/line/system/arrow-go-back-line">
<g id="Group">
<path id="Vector" d="M5.828 7L8.364 9.536L6.95 10.95L2 6L6.95 1.05L8.364 2.464L5.828 5H13C15.1217 5 17.1566 5.84286 18.6569 7.34315C20.1571 8.84344 21 10.8783 21 13C21 15.1217 20.1571 17.1566 18.6569 18.6569C17.1566 20.1572 15.1217 21 13 21H4V19H13C14.5913 19 16.1174 18.3679 17.2426 17.2426C18.3679 16.1174 19 14.5913 19 13C19 11.4087 18.3679 9.88258 17.2426 8.75736C16.1174 7.63214 14.5913 7 13 7H5.828Z"/>
</g>
</g>
</svg>
