<svg width="24" height="24" viewBox="0 0 24 24" xmlns="http://www.w3.org/2000/svg">
<g id="remix-icons/line/system/loader-3-line">
<g id="Group">
<path id="Vector" d="M3.05499 13H5.06999C5.31228 14.6648 6.14585 16.1867 7.41822 17.2873C8.69058 18.3879 10.3167 18.9936 11.999 18.9936C13.6813 18.9936 15.3074 18.3879 16.5798 17.2873C17.8521 16.1867 18.6857 14.6648 18.928 13H20.944C20.6974 15.1999 19.6489 17.2317 17.9988 18.7073C16.3486 20.1828 14.2126 20.9985 11.999 20.9985C9.78535 20.9985 7.64935 20.1828 5.99921 18.7073C4.34907 17.2317 3.30053 15.1999 3.05399 13H3.05499ZM3.05499 11C3.30153 8.80015 4.35007 6.76829 6.00021 5.29275C7.65035 3.81721 9.78635 3.0015 12 3.0015C14.2136 3.0015 16.3496 3.81721 17.9998 5.29275C19.6499 6.76829 20.6984 8.80015 20.945 11H18.93C18.6877 9.33523 17.8541 7.81333 16.5818 6.71274C15.3094 5.61216 13.6833 5.00646 12.001 5.00646C10.3187 5.00646 8.69258 5.61216 7.42022 6.71274C6.14785 7.81333 5.31428 9.33523 5.07199 11H3.05499Z"/>
</g>
</g>
</svg>
