<svg width="24" height="24" viewBox="0 0 24 24" xmlns="http://www.w3.org/2000/svg">
<g id="remix-icons/line/system/refresh-line">
<g id="Group">
<path id="Vector" d="M5.463 4.43299C7.27756 2.86065 9.59899 1.99664 12 1.99999C17.523 1.99999 22 6.47699 22 12C22 14.136 21.33 16.116 20.19 17.74L17 12H20C20.0001 10.4316 19.5392 8.8978 18.6747 7.58925C17.8101 6.2807 16.5799 5.25515 15.1372 4.64012C13.6944 4.02508 12.1027 3.8477 10.56 4.13001C9.0172 4.41233 7.59145 5.14189 6.46 6.22799L5.463 4.43299ZM18.537 19.567C16.7224 21.1393 14.401 22.0033 12 22C6.477 22 2 17.523 2 12C2 9.86399 2.67 7.88399 3.81 6.25999L7 12H4C3.99987 13.5684 4.46075 15.1022 5.32534 16.4107C6.18992 17.7193 7.42007 18.7448 8.86282 19.3599C10.3056 19.9749 11.8973 20.1523 13.44 19.87C14.9828 19.5877 16.4085 18.8581 17.54 17.772L18.537 19.567Z"/>
</g>
</g>
</svg>
