<svg width="24" height="24" viewBox="0 0 24 24" xmlns="http://www.w3.org/2000/svg">
<g id="remix-icons/line/system/share-line">
<g id="Group">
<path id="Vector" d="M13.12 17.023L8.921 14.733C8.3728 15.3191 7.66098 15.7267 6.87807 15.9029C6.09516 16.0791 5.27735 16.0157 4.53092 15.721C3.78449 15.4264 3.14396 14.914 2.69257 14.2505C2.24118 13.5869 1.99979 12.803 1.99979 12.0005C1.99979 11.198 2.24118 10.4141 2.69257 9.75056C3.14396 9.08705 3.78449 8.57466 4.53092 8.27997C5.27735 7.98527 6.09516 7.92191 6.87807 8.09812C7.66098 8.27432 8.3728 8.68194 8.921 9.268L13.121 6.97801C12.8826 6.03408 12.9966 5.03559 13.4416 4.16971C13.8867 3.30382 14.6323 2.62999 15.5387 2.27451C16.445 1.91903 17.4499 1.90631 18.365 2.23874C19.28 2.57117 20.0425 3.22592 20.5093 4.08027C20.9762 4.93461 21.1154 5.92989 20.9009 6.87955C20.6864 7.82921 20.1329 8.66804 19.3442 9.23881C18.5555 9.80959 17.5857 10.0731 16.6166 9.98C15.6475 9.88688 14.7456 9.44352 14.08 8.73301L9.88 11.023C10.0412 11.6644 10.0412 12.3356 9.88 12.977L14.079 15.267C14.7446 14.5565 15.6465 14.1131 16.6156 14.02C17.5847 13.9269 18.5545 14.1904 19.3432 14.7612C20.1319 15.332 20.6854 16.1708 20.8999 17.1205C21.1144 18.0701 20.9752 19.0654 20.5083 19.9197C20.0415 20.7741 19.279 21.4288 18.364 21.7613C17.4489 22.0937 16.444 22.081 15.5377 21.7255C14.6313 21.37 13.8857 20.6962 13.4406 19.8303C12.9956 18.9644 12.8816 17.9659 13.12 17.022V17.023ZM6 14C6.53043 14 7.03914 13.7893 7.41421 13.4142C7.78929 13.0391 8 12.5304 8 12C8 11.4696 7.78929 10.9609 7.41421 10.5858C7.03914 10.2107 6.53043 10 6 10C5.46957 10 4.96086 10.2107 4.58579 10.5858C4.21071 10.9609 4 11.4696 4 12C4 12.5304 4.21071 13.0391 4.58579 13.4142C4.96086 13.7893 5.46957 14 6 14ZM17 8.00001C17.5304 8.00001 18.0391 7.78929 18.4142 7.41422C18.7893 7.03915 19 6.53044 19 6.00001C19 5.46957 18.7893 4.96086 18.4142 4.58579C18.0391 4.21072 17.5304 4.00001 17 4.00001C16.4696 4.00001 15.9609 4.21072 15.5858 4.58579C15.2107 4.96086 15 5.46957 15 6.00001C15 6.53044 15.2107 7.03915 15.5858 7.41422C15.9609 7.78929 16.4696 8.00001 17 8.00001ZM17 20C17.5304 20 18.0391 19.7893 18.4142 19.4142C18.7893 19.0391 19 18.5304 19 18C19 17.4696 18.7893 16.9609 18.4142 16.5858C18.0391 16.2107 17.5304 16 17 16C16.4696 16 15.9609 16.2107 15.5858 16.5858C15.2107 16.9609 15 17.4696 15 18C15 18.5304 15.2107 19.0391 15.5858 19.4142C15.9609 19.7893 16.4696 20 17 20Z"/>
</g>
</g>
</svg>
