<svg width="24" height="24" viewBox="0 0 24 24" xmlns="http://www.w3.org/2000/svg">
<g id="remix-icons/line/system/share-forward-box-line">
<g id="Group">
<path id="Vector" d="M9 3V5H4V19H20V10H22V20C22 20.2652 21.8946 20.5196 21.7071 20.7071C21.5196 20.8946 21.2652 21 21 21H3C2.73478 21 2.48043 20.8946 2.29289 20.7071C2.10536 20.5196 2 20.2652 2 20V4C2 3.73479 2.10536 3.48043 2.29289 3.29289C2.48043 3.10536 2.73478 3 3 3H9ZM18.95 5L16 2.05L17.414 0.636002L22.754 5.976C22.8378 6.05991 22.8949 6.16677 22.918 6.28309C22.9411 6.39941 22.9292 6.51997 22.8838 6.62954C22.8385 6.73911 22.7616 6.83278 22.6631 6.89872C22.5645 6.96465 22.4486 6.9999 22.33 7H14C13.4696 7 12.9609 7.21071 12.5858 7.58579C12.2107 7.96086 12 8.46957 12 9V15H10V9C10 7.93914 10.4214 6.92172 11.1716 6.17157C11.9217 5.42143 12.9391 5 14 5H18.95Z"/>
</g>
</g>
</svg>
