<svg width="1000" height="1000" xmlns="http://www.w3.org/2000/svg"><path d="M463.56 10.98c-17.07 5.56-31.64 18.22-38.74 33.75-3.84 8.63-4.41 13.42-5.37 46.22-.96 36.44-.96 36.63-6.71 45.84-3.07 4.99-7.86 10.74-10.55 12.85-2.69 1.92-20.33 9.97-39.31 18.03-30.69 13.04-35.86 14.58-46.99 14.77-16.88.19-21.48-2.49-48.9-29.15-28.38-27.81-35.86-31.83-57.53-31.83-22.05.19-29.53 4.22-56.77 31.45-27.23 27.43-31.26 34.9-31.26 56.77 0 21.48 4.03 29.15 31.64 57.53 26.66 27.42 29.34 32.03 29.15 48.9-.19 11.12-1.73 16.3-14.77 46.99-8.06 18.99-16.11 36.63-18.03 39.32-2.11 2.68-7.86 7.29-12.85 10.55-9.21 5.75-9.4 5.75-45.84 6.71-32.79.96-37.59 1.53-46.22 5.37-12.07 5.54-22.81 15.9-29.33 28.17C10 462.62 10 463.39 10 500.21s0 37.59 5.18 46.99c6.52 12.27 17.26 22.63 29.34 28.19 8.63 3.83 13.42 4.41 46.22 5.37 36.44.96 36.63.96 45.84 6.71 4.99 3.07 10.74 7.86 12.85 10.55 1.92 2.68 9.97 20.33 18.03 39.31 13.04 30.69 14.58 35.86 14.77 46.99.19 16.88-2.49 21.48-29.15 48.9-27.62 28.38-31.84 35.86-31.84 57.53 0 21.86 4.22 29.34 31.45 56.77 27.23 27.23 34.71 31.26 56.77 31.26 21.67 0 29.15-4.22 57.53-31.64 12.66-12.27 26.08-23.78 29.73-25.7 4.22-2.3 11.12-3.64 18.22-3.64 9.97 0 15.92 1.73 46.03 14.19 18.99 7.67 37.4 16.11 40.66 18.6 3.45 2.49 8.63 8.63 11.51 13.62 5.18 8.82 5.37 9.97 6.33 45.45.96 32.6 1.53 37.4 5.37 46.03 5.56 12.08 15.92 22.82 28.19 29.34 9.4 5.18 10.16 5.18 46.99 5.18s37.59 0 46.99-5.18c12.27-6.52 22.63-17.26 28.19-29.34 3.83-8.63 4.41-13.42 5.37-46.03.96-35.67 1.15-36.63 6.33-45.64 2.88-4.99 7.86-10.93 10.93-13.04 6.33-4.79 65.97-29.92 77.67-32.6 8.63-2.11 20.33-.77 28.77 3.45 3.26 1.72 16.11 13.04 28.77 25.32 28.38 27.81 35.86 31.83 57.53 31.64 21.29 0 30.49-5.18 56.77-31.26 26.27-26.08 31.26-35.29 31.26-56.77 0-21.86-4.03-28.77-33.56-59.64-23.21-23.97-24.55-25.89-26.66-36.25-1.34-6.14-1.73-13.81-1.15-17.07 1.92-9.59 28.19-72.49 33.18-79.21 2.49-3.45 8.63-8.63 13.62-11.51 8.82-5.18 9.97-5.37 45.45-6.33 32.6-.96 37.4-1.53 46.03-5.37 12.08-5.56 22.82-15.92 29.34-28.19 5.18-9.4 5.18-10.16 5.18-46.99s0-37.59-5.18-46.99c-6.52-12.27-17.26-22.63-29.34-28.19-8.63-3.84-13.42-4.41-46.22-5.37-36.44-.96-36.63-.96-45.84-6.71-4.99-3.26-10.74-7.86-12.85-10.55-1.92-2.69-9.97-20.33-18.03-39.32-13.04-30.68-14.58-35.86-14.77-46.99-.19-16.88 2.49-21.48 29.15-48.9 27.42-28.19 31.64-35.67 31.64-57.53 0-22.05-4.03-29.54-31.26-56.77-27.23-27.23-34.71-31.26-56.77-31.45-21.67 0-29.15 4.03-57.53 31.83-12.66 12.27-26.08 23.97-29.73 25.7-4.22 2.3-11.12 3.64-18.22 3.64-9.97 0-15.92-1.72-46.03-14.19-18.99-7.67-37.4-16.11-40.66-18.6-3.45-2.49-8.63-8.63-11.51-13.62-5.18-8.82-5.37-9.97-6.33-45.45-.96-32.6-1.53-37.4-5.37-46.03-5.56-12.08-15.92-22.82-28.19-29.34-9.21-4.99-10.74-5.18-44.11-5.56-18.99-.17-36.63.4-39.32 1.17zM533.75 43c3.64 1.73 8.44 5.95 10.93 9.21 3.83 5.56 4.22 8.63 5.18 43.34.96 35.48 1.15 37.97 6.14 48.52 5.56 11.89 22.05 30.68 31.07 35.29 16.11 8.25 76.52 31.83 86.11 33.56 13.62 2.49 29.92-.19 45.07-7.1 7.86-3.64 16.88-10.93 33.95-28 24.93-24.55 30.49-27.81 43.92-25.51 6.33.96 11.12 4.6 28.38 21.48 33.37 32.6 33.37 37.97-1.34 73.26-14.57 14.96-25.32 27.62-28.38 33.75-7.1 14.19-10.16 32.6-7.67 46.41 1.92 9.59 25.89 70.77 33.75 85.92 4.99 9.59 20.91 23.78 33.95 30.11 12.27 6.14 12.46 6.14 48.9 7.1 41.04 1.15 46.22 2.68 52.93 15.34 5.37 9.78 5.37 59.26 0 69.04-6.71 12.66-11.89 14.19-52.93 15.34-36.44.96-36.63.96-49.09 7.1-13.23 6.52-28.77 20.33-33.75 29.92-8.05 15.73-31.83 76.52-33.75 86.11-2.49 13.81.57 32.22 7.67 46.41 3.07 6.14 13.81 18.8 28.38 33.75 24.93 25.32 27.42 30.11 24.93 43.54-.96 5.18-5.75 11.51-19.75 26.08-21.29 22.05-30.49 27.42-43.15 25.32-7.1-1.34-11.32-4.6-32.22-25.12-17.64-17.45-27.04-25.12-34.91-28.58-14.96-6.9-31.26-9.59-44.88-7.1-9.78 1.73-70.19 25.32-86.3 33.56-9.59 4.99-23.4 20.52-29.92 33.75-6.14 12.47-6.14 12.66-7.1 49.1-1.15 41.04-2.69 46.22-15.34 52.93-9.78 5.37-59.26 5.37-69.04 0-12.66-6.71-14.19-11.89-15.34-52.93-.96-34.52-1.34-37.01-6.14-47.56-5.56-11.89-22.05-30.68-31.07-35.29-16.11-8.25-76.52-31.83-86.11-33.56-7.48-1.34-14.58-1.34-22.63.19-21.1 3.64-30.68 9.59-56.96 35.29-25.89 25.13-30.3 27.62-44.3 25.13-9.4-1.92-47.18-38.36-50.25-48.9-4.41-14.38-1.73-19.56 24.36-46.03 17.45-17.64 25.12-27.04 28.57-34.9 6.9-14.96 9.59-31.26 7.1-45.07-1.73-9.59-25.51-70.38-33.56-85.92-4.99-9.59-20.9-23.78-33.95-30.11-12.27-6.14-12.47-6.14-48.9-7.1-41.04-1.15-46.22-2.69-52.93-15.34-5.37-9.78-5.37-59.26 0-69.04 6.7-12.66 11.88-14.19 52.92-15.34 34.52-.96 37.01-1.34 47.56-6.14 11.89-5.56 30.68-22.05 35.29-31.07 8.25-16.11 31.83-76.52 33.56-86.11 2.49-13.62-.19-29.92-7.1-44.88-3.45-7.86-11.12-17.26-28.57-34.9-34.9-35.67-35.1-40.85-1.54-73.45 17.26-16.88 22.05-20.52 28.38-21.48 13.42-2.3 18.99.96 43.92 25.51 17.07 17.07 26.08 24.36 33.95 28 15.15 6.9 31.45 9.59 45.07 7.1 9.59-1.73 70-25.32 86.11-33.56 9.01-4.6 25.51-23.4 31.07-35.29 4.79-10.55 5.18-13.04 6.14-47.56 1.15-41.04 2.69-46.22 15.34-52.93 9.2-5 58.11-5.38 68.27-.59z"/><path d="M455.89 283.5c-83.04 17.64-148.06 79.01-170.3 160.71-4.6 17.07-4.99 21.67-4.99 56 0 34.52.38 38.93 4.99 56.19 20.9 76.52 80.74 136.55 157.84 158.03 17.83 4.79 21.67 5.18 56.58 5.18s38.74-.38 56.58-5.18c77.1-21.48 136.93-81.32 157.45-157.64 6.14-23.4 8.44-66.93 4.6-90.71-12.85-80.93-70.96-149.78-148.05-175.48-8.25-2.88-21.86-6.33-30.49-8.06-21.69-4.03-63.11-3.65-84.21.96zm93.97 32.6c32.41 9.4 60.99 26.27 84.57 49.67 23.59 23.78 40.47 52.36 50.06 85.54 3.83 13.42 4.41 19.56 4.41 48.9s-.58 35.48-4.41 48.9c-9.59 33.18-26.47 61.75-50.06 85.53-23.78 23.59-52.36 40.47-85.53 50.06-13.42 3.84-19.56 4.41-48.9 4.41s-35.48-.58-48.9-4.41c-65.59-18.98-114.5-67.12-134.63-131.94-4.79-15.92-5.18-19.18-5.18-52.55 0-33.18.38-36.63 5.18-52.36 21.29-68.85 75.37-119.1 145.18-134.63 19.17-4.22 69.42-2.68 88.21 2.88z"/></svg>
